# xmcd CD database file
#
# Track frame offsets:
#	150
#	14287
#	29632
#	41472
#	51955
#	65427
#	78682
#	91080
#	99585
#	111695
#	123610
#	135420
#	146395
#	159355
#	170082
#
# Disc length: 2417 seconds
#
# Revision: 0
# Processed by: cddbd v1.5.2PL0 Copyright (c) Steve Scherf et al.
# Submitted via: CDex 1.51
#
DISCID=cf096f0f
DTITLE=Glass, Hamilton and Young - Rocking Cowboy
DYEAR=1993
DGENRE=Country
TTITLE0=I Can Help
TTITLE1=I'll Light A Fire
TTITLE2=Anyone Else But Me
TTITLE3=Welcome Home
TTITLE4=Don't Say You Haven't Been Warned
TTITLE5=Standing Too Close To The Flame
TTITLE6=Margie Goodbye
TTITLE7=Bee In My Bonnet
TTITLE8=What Amanda Needs
TTITLE9=Catnip
TTITLE10=Say The Word
TTITLE11=Letterbox
TTITLE12=It's All Over (Bar The Shouting)
TTITLE13=I Kept The Song
TTITLE14=Rocking Cowboy
EXTD=YEAR: 1993
EXTT0=
EXTT1=
EXTT2=
EXTT3=
EXTT4=
EXTT5=
EXTT6=
EXTT7=
EXTT8=
EXTT9=
EXTT10=
EXTT11=
EXTT12=
EXTT13=
EXTT14=
PLAYORDER=
